PathFileType	4	(X/Y/Z)	C:\Users\Basilio\Documents\Thesis Gigler\squatting_fais\c3dfiles\077\SJ_pre2\markers_experimental.trc
DataRate	CameraRate	NumFrames	NumMarkers	Units	OrigDataRate	OrigDataStartFrame	OrigNumFrames
200.000000	200.000000	4	60	mm	200.000000	473	1263
Frame#	Time	FHD			LBHD			RBHD			C7			T10			CLAV			LSHO			LUUPA			LMUPA			LDUPA			LLEP			LMEP			LRAD			LUL			LRFIN			RSHO			RUPA1			RMUPA			RDUPA			RLEP			RMEP			RRAD			RUL			RUFIN			LASI			RASI			USACR			LSACR			RSACR			LTHI1			LTHI2			LTHI3			LTHI4			LLFC			LMFC			LTIB1			LTIB2			LTIB3			LTIB4			LLMAL			LHEE			LMT1			LMT2			LMT5			RTHI			RTHI2			RTHI3			RTHI4			RLFC			RMFC			RTIB1			RTIB2			RTIB3			RTIB4			RLMAL			RMMAL			RHEE			RMT1			RMT2			RMT5			
		X1	Y1	Z1	X2	Y2	Z2	X3	Y3	Z3	X4	Y4	Z4	X5	Y5	Z5	X6	Y6	Z6	X7	Y7	Z7	X8	Y8	Z8	X9	Y9	Z9	X10	Y10	Z10	X11	Y11	Z11	X12	Y12	Z12	X13	Y13	Z13	X14	Y14	Z14	X15	Y15	Z15	X16	Y16	Z16	X17	Y17	Z17	X18	Y18	Z18	X19	Y19	Z19	X20	Y20	Z20	X21	Y21	Z21	X22	Y22	Z22	X23	Y23	Z23	X24	Y24	Z24	X25	Y25	Z25	X26	Y26	Z26	X27	Y27	Z27	X28	Y28	Z28	X29	Y29	Z29	X30	Y30	Z30	X31	Y31	Z31	X32	Y32	Z32	X33	Y33	Z33	X34	Y34	Z34	X35	Y35	Z35	X36	Y36	Z36	X37	Y37	Z37	X38	Y38	Z38	X39	Y39	Z39	X40	Y40	Z40	X41	Y41	Z41	X42	Y42	Z42	X43	Y43	Z43	X44	Y44	Z44	X45	Y45	Z45	X46	Y46	Z46	X47	Y47	Z47	X48	Y48	Z48	X49	Y49	Z49	X50	Y50	Z50	X51	Y51	Z51	X52	Y52	Z52	X53	Y53	Z53	X54	Y54	Z54	X55	Y55	Z55	X56	Y56	Z56	X57	Y57	Z57	X58	Y58	Z58	X59	Y59	Z59	X60	Y60	Z60	

474	2.365	114.5103912353516	1255.577270507813	-908.2391357421877	-25.83897590637208	1145.632934570313	-975.223571777344	-34.55511474609376	1147.880859375	-830.083923339844	-92.60688781738283	1086.895629882813	-904.694763183594	-322.8167724609376	873.5603637695315	-903.770935058594	22.40959167480469	940.5898437500002	-894.0603027343752	33.51055908203126	996.675720214844	-1072.635986328125	-47.84750747680665	928.635925292969	-1263.198608398438	-57.28183746337892	880.7808227539065	-1265.35302734375	-81.30124664306642	901.1151123046877	-1316.63134765625	-126.650619506836	855.5249023437502	-1353.130126953125	-189.9201049804688	915.8374633789065	-1346.279296875	-349.5251159667969	777.445251464844	-1140.530883789063	-337.8662109375001	707.7043457031251	-1180.72900390625	nan	nan	nan	45.10107421875001	985.5574951171877	-722.8351440429689	-61.19239807128908	912.300720214844	-527.7680664062501	-80.49969482421876	867.1557617187502	-537.3859252929689	-107.0949630737305	880.810974121094	-484.9794006347657	-161.1108703613282	837.7034912109377	-460.6520080566407	-223.1571960449219	903.036560058594	-464.4241943359376	-379.7701721191407	758.5432128906251	-659.5688476562501	-349.9455566406251	687.4426269531251	-638.2028808593751	nan	nan	nan	nan	nan	nan	nan	nan	nan	-418.211151123047	814.5340576171877	-906.0708007812502	-442.2242431640626	805.3476562500002	-936.4465332031252	-452.886199951172	801.8396606445315	-882.2081298828127	-343.4043579101563	605.5939941406251	-1166.166137695313	-264.4282836914063	596.6498413085939	-1195.464965820313	-237.3321990966797	634.3925170898439	-1180.18310546875	-238.0362091064454	546.4121704101564	-1215.26708984375	-105.3162460327149	484.5422973632814	-1250.23388671875	-59.8013038635254	441.6768798828126	-1133.00048828125	-141.5749206542969	269.6904602050782	-1195.324340820313	-213.0852203369141	259.5334777832032	-1253.102905273438	-180.6455078125	238.1200408935547	-1228.087768554688	-220.3495330810547	170.4837188720703	-1192.714599609375	-337.1727905273438	103.1524047851563	-1218.292358398438	-391.8660583496095	48.9285354614258	-1162.70458984375	-176.7886047363282	57.74644088745119	-1197.277954101563	-185.5268859863282	58.90346145629884	-1238.469970703125	-288.7490539550782	97.37968444824222	-1144.497314453125	-260.8416442871094	541.4070434570314	-613.1956787109376	-192.1137084960938	553.1777954101564	-596.7937622070314	-174.044921875	579.7943115234376	-608.4552001953126	-141.1917724609375	488.0273742675782	-585.2316284179689	-108.6928482055664	449.0345764160157	-574.5878295898439	-55.20498275756837	425.7425537109376	-690.2601318359376	-118.8908615112305	316.3558044433594	-585.6719970703126	-223.1938476562501	286.2774047851563	-577.2046508789064	-185.4416656494141	259.1321105957032	-588.2586669921876	-192.1448211669922	215.8772735595704	-627.0274047851564	-350.3292541503907	99.73905944824222	-619.7942504882814	-299.8358459472657	86.63087463378908	-695.4479980468751	-406.401580810547	50.100154876709	-685.2700195312501	-196.4420623779297	58.44086837768556	-596.0054931640626	-213.3256072998047	61.10923767089845	-562.2003784179689	-245.5577392578126	43.12970733642579	-521.4625244140626	
475	2.37	114.6041336059571	1255.443237304688	-908.2630004882815	-25.90342521667481	1145.522216796875	-975.2519531250002	-34.21557617187501	1146.982666015625	-830.007019042969	-92.50896453857423	1086.89111328125	-904.7487792968752	-322.6995849609376	873.6075439453127	-903.757995605469	22.52077293395996	940.6021728515627	-894.0515747070315	33.55475997924805	996.6970825195315	-1072.66015625	-47.98653411865235	928.686950683594	-1263.210327148438	-57.16541290283205	880.6661376953127	-1265.311889648438	-81.47930908203126	901.170104980469	-1316.65234375	-126.5743789672852	855.4807128906252	-1353.093627929688	-189.9639434814453	915.8184814453127	-1346.266357421875	-349.7849731445313	777.5972900390627	-1140.42138671875	-337.7789611816407	707.5643310546876	-1180.654174804688	nan	nan	nan	45.13564682006837	985.6235961914065	-722.8502197265626	-61.18842697143556	912.3968505859377	-527.7413330078126	-80.39552307128908	867.2064208984377	-537.3015747070314	-107.0861129760742	880.8978271484377	-484.9888000488282	-161.1792755126953	837.6314697265627	-460.7077636718751	-223.1268005371094	903.078308105469	-464.3895263671876	-379.6832275390626	758.5263061523439	-659.5479736328126	-349.8641662597657	687.3940429687501	-638.1069335937501	nan	nan	nan	nan	nan	nan	nan	nan	nan	-418.1159057617189	814.5418701171877	-906.0456542968752	-442.1182861328126	805.2149658203127	-936.3741455078127	-452.8426208496095	801.6968994140627	-882.1192626953127	-343.1598205566407	605.3981323242189	-1166.059692382813	-264.3450622558594	596.5527954101564	-1195.44091796875	-237.2447357177735	634.2847900390626	-1180.123779296875	-238.0444641113282	546.3936767578126	-1215.20263671875	-105.2556915283203	484.442352294922	-1250.155395507813	-59.67419052124025	441.5747070312501	-1132.989868164063	-141.4335021972657	269.6034240722657	-1195.276245117188	-213.0679626464844	259.5284423828126	-1253.109619140625	-180.2845001220703	238.0547485351563	-1228.213989257813	-220.2867736816407	170.4642639160157	-1192.710815429688	-337.1614990234376	103.1841278076172	-1218.203491210938	-391.8228759765626	48.97487640380861	-1162.647216796875	-176.8448791503907	57.87557983398439	-1197.284545898438	-185.5779724121094	58.95384216308595	-1238.47802734375	-288.7335205078126	97.30899047851565	-1144.465698242188	-260.7648010253907	541.2924194335939	-613.1463623046876	-192.0274810791016	553.1210327148439	-596.7048339843751	-173.952621459961	579.7905273437501	-608.4121704101564	-140.9435577392578	487.8529052734376	-585.3506469726564	-108.5994033813477	448.9860229492189	-574.4596557617189	-54.98985671997072	425.7079467773439	-690.1912841796876	-118.8472137451172	316.3118896484376	-585.6456298828126	-223.1165161132813	286.2088317871094	-577.1663208007814	-185.3417053222657	259.0599670410157	-588.2346801757814	-192.0455474853516	215.8762817382813	-627.0001220703126	-350.2977600097657	99.74518585205081	-619.7880249023439	-299.7782287597657	86.61084747314455	-695.4249877929689	-406.3484497070314	50.08229827880861	-685.3031616210939	-196.4215545654297	58.46404266357423	-596.0055541992189	-213.3328552246094	61.10866928100587	-562.2322998046876	-245.5398864746094	43.1604118347168	-521.4542236328126	
476	2.375	114.6959228515625	1255.454345703125	-908.2938232421877	-25.7959327697754	1145.816040039063	-975.289245605469	-34.17101669311524	1147.013549804688	-830.1226806640627	-92.47157287597658	1086.880126953125	-904.7519531250002	-322.5992126464844	873.567810058594	-903.7193603515627	22.5401782989502	940.621276855469	-894.072937011719	33.52247619628907	996.6670532226565	-1072.714599609375	-48.04913330078126	928.6213989257815	-1263.283935546875	-57.2723960876465	880.679382324219	-1265.353637695313	-81.30537414550783	901.089294433594	-1316.617553710938	-126.608642578125	855.469421386719	-1353.121704101563	-189.9118347167969	915.7549438476565	-1346.275390625	-349.9592895507813	777.7061767578127	-1140.331298828125	-337.6882324218751	707.5028076171876	-1180.656982421875	nan	nan	nan	45.19539642333985	985.6516723632815	-722.8334960937501	-61.12090301513673	912.4568481445315	-527.7001342773439	-80.37588500976564	867.2676391601565	-537.2877807617189	-106.9801559448242	881.0440063476565	-484.8931274414064	-161.1057434082032	837.7663574218752	-460.6618041992189	-223.0790405273438	903.1135864257815	-464.3809814453126	-379.5805053710938	758.4743041992189	-659.4585571289064	-349.7739562988282	687.3582153320314	-638.0464477539064	nan	nan	nan	nan	nan	nan	nan	nan	nan	-418.0333557128907	814.516540527344	-905.996276855469	-441.9734802246095	805.1325683593752	-936.343688964844	-452.7381591796876	801.564880371094	-882.051452636719	-342.8432312011719	605.2286376953126	-1165.912353515625	-264.2725524902344	596.4960327148439	-1195.42138671875	-237.2017669677735	634.3511962890626	-1180.080444335938	-237.8074493408204	546.1539916992189	-1215.177978515625	-104.2897491455078	484.2789916992189	-1250.118408203125	-59.54016113281251	441.604949951172	-1132.997802734375	-141.3961791992188	269.5199279785157	-1195.321166992188	-213.0186462402344	259.5317382812501	-1253.105224609375	-180.6995239257813	238.0238189697266	-1227.997192382813	-220.3131256103516	170.4202575683594	-1192.692993164063	-337.1400451660157	103.26953125	-1218.215454101563	-391.7895507812501	48.9874610900879	-1162.650024414063	-176.807601928711	57.84135818481447	-1197.2841796875	-185.5363464355469	58.91477966308595	-1238.482666015625	-288.7108764648438	97.33843994140628	-1144.44873046875	-260.6825561523438	541.2342529296876	-613.0113525390626	-191.9078674316407	553.0298461914064	-596.5931396484376	-173.823974609375	579.6941528320314	-608.3032226562501	-140.9031219482422	487.7484436035157	-585.3204956054689	-108.4710922241211	448.9812927246095	-574.4202270507814	-54.9270706176758	425.6453857421876	-690.1085205078126	-118.8109741210938	316.1677551269532	-585.5501708984376	-223.0453338623047	286.1624755859376	-577.1688842773439	-185.3351745605469	259.0821533203126	-588.2083740234376	-192.0755920410157	215.8767547607422	-627.0036010742189	-350.2923278808594	99.7011413574219	-619.7868652343751	-299.8343200683594	86.65707397460939	-695.4973144531251	-406.3460083007814	50.14564895629884	-685.3329467773439	-196.4114074707032	58.45213699340822	-596.0009765625001	-213.3213195800782	61.14536666870119	-562.2055664062501	-245.5455627441407	43.12251281738282	-521.4609375000001	
477	2.38	114.8249893188477	1255.303466796875	-908.345886230469	-25.72108268737794	1145.689575195313	-975.2186279296877	-34.08775711059571	1147.0166015625	-830.1195068359377	-92.4678421020508	1086.866455078125	-904.8024902343752	-322.5089111328126	873.4624633789065	-903.6870727539065	22.54513359069825	940.6824340820315	-894.111267089844	33.52838516235352	996.6586914062502	-1072.749633789063	-47.97450256347657	928.572937011719	-1263.234985351563	-57.08653640747072	880.5878906250002	-1265.317504882813	-81.35249328613283	901.061706542969	-1316.617309570313	-126.4939498901367	855.4177856445315	-1353.04296875	-189.881591796875	915.755798339844	-1346.28125	-349.6953430175782	777.386657714844	-1140.322143554688	-337.7395324707032	707.4331054687501	-1180.603881835938	nan	nan	nan	45.2069206237793	985.6062011718752	-722.8563842773439	-61.14234161376955	912.510437011719	-527.6963500976564	-80.29870605468751	867.3609619140627	-537.2938842773439	-106.9361648559571	881.1284179687502	-484.8576965332032	-161.0876159667969	837.7897949218752	-460.6531372070314	-223.0051269531251	903.1272583007815	-464.3856811523439	-379.5599060058594	758.2902832031251	-659.4205932617189	-349.6492614746094	687.2938232421876	-637.9524536132814	nan	nan	nan	nan	nan	nan	nan	nan	nan	-418.0077514648439	814.5337524414065	-905.8693847656252	-441.992889404297	805.0689086914065	-936.317321777344	-452.4544982910157	801.4483032226565	-881.9981689453127	-342.8377380371094	605.1939086914064	-1165.89013671875	-264.0249633789063	596.4389648437501	-1195.322021484375	-236.4000549316407	634.0707397460939	-1179.7900390625	-237.6612548828126	546.0986328125001	-1215.201049804688	-104.235466003418	484.2373962402345	-1250.029663085938	-59.42568206787111	441.5188293457032	-1133.004272460938	-141.3461456298828	269.5394592285157	-1195.354248046875	-212.9511871337891	259.4729614257813	-1253.078125	-180.1258087158203	237.7576751708985	-1228.146728515625	-220.2425537109376	170.3875122070313	-1192.694091796875	-337.0253295898438	103.1706695556641	-1218.229370117188	-391.8034973144532	48.99074935913087	-1162.653198242188	-176.7755584716797	57.64018630981447	-1197.28125	-185.5405426025391	58.86246490478517	-1238.467895507813	-288.6833190917969	97.32331848144534	-1144.4765625	-260.6009826660157	541.1688842773439	-612.9567260742189	-191.8457336425782	552.9479370117189	-596.5767211914064	-173.7288360595703	579.5996093750001	-608.2696533203126	-140.8433380126953	487.9458007812501	-584.9378662109376	-108.3829116821289	448.9062500000001	-574.3498535156251	-54.86408996582033	425.6077270507814	-690.0610961914064	-118.6180725097657	316.1313476562501	-585.4417114257814	-222.9913330078126	286.1521301269532	-577.1146240234376	-185.2690124511719	258.9743347167969	-588.1625976562501	-191.9362182617188	215.7812042236329	-626.9583129882814	-350.2873229980469	99.7683029174805	-619.8130493164064	-299.8537902832032	86.63579559326173	-695.4851074218751	-406.3673706054689	50.20783996582033	-685.3091430664064	-196.4184112548829	58.4108009338379	-595.9633789062501	-213.3112030029297	61.11000442504884	-562.2112426757814	-245.5545349121094	43.16545867919923	-521.4514770507814	
